<svg width="500" height="500" viewBox="0 0 500 500" fill="none" xmlns="http://www.w3.org/2000/svg">
<g clip-path="url(#clip0_666_672)">
<path d="M382.812 0H117.187C52.4667 0 0 52.4667 0 117.187V382.812C0 447.533 52.4667 500 117.187 500H382.812C447.533 500 500 447.533 500 382.812V117.187C500 52.4667 447.533 0 382.812 0Z" fill="url(#paint0_linear_666_672)"/>
<path d="M250 425.781C347.081 425.781 425.781 347.081 425.781 250C425.781 152.919 347.081 74.2188 250 74.2188C152.919 74.2188 74.2188 152.919 74.2188 250C74.2188 347.081 152.919 425.781 250 425.781Z" fill="url(#paint1_linear_666_672)"/>
<path d="M219.831 146.415L146.414 219.831C139.549 226.696 139.549 237.827 146.414 244.692C153.279 251.556 164.409 251.556 171.273 244.692L244.692 171.274C251.556 164.409 251.556 153.279 244.692 146.415C237.827 139.55 226.696 139.55 219.831 146.415Z" fill="#0ACF83"/>
<path d="M327.058 253.642L253.64 327.058C246.775 333.923 246.775 345.054 253.64 351.919C260.506 358.783 271.635 358.783 278.5 351.919L351.917 278.5C358.781 271.635 358.781 260.506 351.917 253.642C345.052 246.777 333.923 246.777 327.058 253.642Z" fill="#FF7262"/>
<path d="M312.548 158.718L158.719 312.548C151.854 319.412 151.854 330.542 158.719 337.406C165.583 344.271 176.713 344.271 183.578 337.406L337.406 183.577C344.271 176.713 344.271 165.583 337.406 158.718C330.542 151.854 319.412 151.853 312.548 158.718Z" fill="#A259FF"/>
</g>
<defs>
<linearGradient id="paint0_linear_666_672" x1="522.917" y1="565.625" x2="-4.61082e-06" y2="-22.9167" gradientUnits="userSpaceOnUse">
<stop offset="0.0743756" stop-color="#0C81B1"/>
<stop offset="0.572495" stop-color="#1ABCFE"/>
<stop offset="1" stop-color="white"/>
</linearGradient>
<linearGradient id="paint1_linear_666_672" x1="111.458" y1="120.833" x2="398.958" y2="383.333" gradientUnits="userSpaceOnUse">
<stop stop-color="white"/>
<stop offset="0.459191" stop-color="white"/>
<stop offset="1" stop-color="#CCCCCC"/>
</linearGradient>
<clipPath id="clip0_666_672">
<rect width="500" height="500" fill="white"/>
</clipPath>
</defs>
</svg>
