<svg width="881" height="136" viewBox="0 0 881 136" fill="none" xmlns="http://www.w3.org/2000/svg">
<g clip-path="url(#clip0_1_47)">
<path fill-rule="evenodd" clip-rule="evenodd" d="M0 65C0 29.1015 29.1015 0 65 0V65H0Z" fill="#8DA4EF"/>
<path fill-rule="evenodd" clip-rule="evenodd" d="M0 130C0 94.1015 29.1015 65 65 65V130H0Z" fill="#E592A2"/>
<path d="M97.5 65C115.449 65 130 50.4493 130 32.5C130 14.5507 115.449 0 97.5 0C79.5507 0 65 14.5507 65 32.5C65 50.4493 79.5507 65 97.5 65Z" fill="#ED8A5C"/>
<path d="M97.5 97.5L65 65H130V130L97.5 97.5Z" fill="#56BA9F"/>
<path d="M188.432 32.4545H196.716L225.212 100.875H225.902L254.398 32.4545H262.682V111H255.932V47.6037H255.318L228.817 111H222.297L195.795 47.6037H195.182V111H188.432V32.4545ZM294.279 112.342C290.725 112.342 287.478 111.652 284.537 110.271C281.597 108.865 279.257 106.845 277.519 104.212C275.78 101.553 274.911 98.331 274.911 94.5469C274.911 91.6321 275.461 89.1776 276.56 87.1832C277.659 85.1889 279.219 83.5526 281.239 82.2741C283.259 80.9957 285.649 79.9858 288.411 79.2443C291.172 78.5028 294.215 77.9276 297.539 77.5185C300.837 77.1094 303.624 76.7514 305.899 76.4446C308.201 76.1378 309.952 75.652 311.154 74.9872C312.355 74.3224 312.956 73.2486 312.956 71.7656V70.3849C312.956 66.3707 311.755 63.2131 309.351 60.9119C306.973 58.5852 303.547 57.4219 299.073 57.4219C294.828 57.4219 291.364 58.3551 288.679 60.2216C286.02 62.0881 284.154 64.2869 283.08 66.8182L276.598 64.4787C277.928 61.2571 279.769 58.6875 282.121 56.7699C284.473 54.8267 287.107 53.4332 290.022 52.5895C292.936 51.7202 295.89 51.2855 298.881 51.2855C301.131 51.2855 303.47 51.5795 305.899 52.1676C308.354 52.7557 310.63 53.7784 312.726 55.2358C314.823 56.6676 316.523 58.6747 317.827 61.2571C319.131 63.8139 319.783 67.0611 319.783 70.9986V111H312.956V101.68H312.534C311.716 103.419 310.502 105.107 308.891 106.743C307.28 108.379 305.26 109.722 302.831 110.77C300.402 111.818 297.551 112.342 294.279 112.342ZM295.199 106.091C298.83 106.091 301.975 105.286 304.634 103.675C307.293 102.064 309.338 99.929 310.77 97.2699C312.228 94.5852 312.956 91.6321 312.956 88.4105V79.8963C312.445 80.3821 311.588 80.8168 310.387 81.2003C309.211 81.5838 307.843 81.929 306.283 82.2358C304.749 82.517 303.215 82.7599 301.681 82.9645C300.147 83.169 298.766 83.348 297.539 83.5014C294.215 83.9105 291.377 84.5497 289.024 85.419C286.672 86.2884 284.87 87.4901 283.617 89.0241C282.364 90.5327 281.738 92.4759 281.738 94.8537C281.738 98.4332 283.016 101.207 285.573 103.176C288.13 105.119 291.338 106.091 295.199 106.091ZM356.097 134.318C352.083 134.318 348.567 133.794 345.55 132.746C342.533 131.723 339.989 130.317 337.918 128.527C335.847 126.737 334.236 124.73 333.086 122.506L338.685 118.824C339.529 120.307 340.654 121.764 342.06 123.196C343.492 124.628 345.346 125.817 347.621 126.763C349.923 127.709 352.748 128.182 356.097 128.182C361.313 128.182 365.519 126.878 368.715 124.27C371.937 121.662 373.548 117.609 373.548 112.112V98.8423H372.934C372.141 100.632 371.003 102.422 369.521 104.212C368.038 105.976 366.094 107.446 363.691 108.622C361.313 109.798 358.36 110.386 354.832 110.386C350.127 110.386 345.947 109.223 342.29 106.896C338.66 104.57 335.796 101.246 333.699 96.9247C331.628 92.5781 330.593 87.4006 330.593 81.392C330.593 75.4347 331.603 70.1932 333.623 65.6676C335.668 61.142 338.519 57.6136 342.175 55.0824C345.832 52.5511 350.089 51.2855 354.947 51.2855C358.552 51.2855 361.543 51.9247 363.921 53.2031C366.299 54.456 368.204 56.0156 369.636 57.8821C371.093 59.7486 372.231 61.5639 373.049 63.3281H373.739V52.0909H380.413V112.534C380.413 117.52 379.351 121.624 377.229 124.845C375.107 128.067 372.218 130.445 368.562 131.979C364.905 133.538 360.751 134.318 356.097 134.318ZM355.637 104.135C359.421 104.135 362.655 103.227 365.34 101.412C368.025 99.571 370.083 96.9375 371.515 93.5114C372.947 90.0852 373.663 86.0071 373.663 81.277C373.663 76.6747 372.959 72.5966 371.553 69.0426C370.147 65.4631 368.101 62.6506 365.417 60.6051C362.758 58.5341 359.498 57.4986 355.637 57.4986C351.699 57.4986 348.376 58.5597 345.665 60.6818C342.955 62.804 340.91 65.6676 339.529 69.2727C338.148 72.8523 337.458 76.8537 337.458 81.277C337.458 85.777 338.161 89.7528 339.567 93.2045C340.974 96.6307 343.032 99.3153 345.742 101.259C348.452 103.176 351.751 104.135 355.637 104.135ZM394.243 111V52.0909H401.108V111H394.243ZM397.733 41.9659C396.327 41.9659 395.125 41.4929 394.128 40.5469C393.131 39.5753 392.632 38.4119 392.632 37.0568C392.632 35.7017 393.131 34.5511 394.128 33.6051C395.125 32.6335 396.327 32.1477 397.733 32.1477C399.139 32.1477 400.341 32.6335 401.338 33.6051C402.335 34.5511 402.834 35.7017 402.834 37.0568C402.834 38.4119 402.335 39.5753 401.338 40.5469C400.341 41.4929 399.139 41.9659 397.733 41.9659ZM437.854 112.227C432.586 112.227 427.997 110.911 424.085 108.277C420.199 105.643 417.182 102.038 415.034 97.4616C412.886 92.8849 411.812 87.669 411.812 81.8139C411.812 75.9077 412.899 70.6534 415.072 66.0511C417.271 61.4489 420.314 57.8437 424.2 55.2358C428.086 52.6023 432.599 51.2855 437.738 51.2855C441.676 51.2855 445.243 52.0526 448.439 53.5866C451.635 55.0952 454.268 57.2301 456.339 59.9915C458.436 62.7273 459.753 65.9233 460.29 69.5795H453.386C452.67 66.2557 450.944 63.4176 448.209 61.0653C445.498 58.6875 442.047 57.4986 437.854 57.4986C434.095 57.4986 430.771 58.5213 427.882 60.5668C424.993 62.5866 422.73 65.4119 421.094 69.0426C419.483 72.6477 418.677 76.8281 418.677 81.5838C418.677 86.3651 419.47 90.5966 421.055 94.2784C422.64 97.9347 424.865 100.798 427.729 102.869C430.618 104.94 433.993 105.976 437.854 105.976C440.461 105.976 442.839 105.49 444.987 104.518C447.16 103.521 448.976 102.115 450.433 100.3C451.916 98.4844 452.913 96.3239 453.425 93.8182H460.328C459.817 97.3722 458.551 100.543 456.531 103.33C454.537 106.091 451.942 108.264 448.746 109.849C445.575 111.435 441.944 112.227 437.854 112.227ZM498.113 111V32.4545H523.464C529.038 32.4545 533.691 33.5284 537.424 35.6761C541.183 37.7983 544.008 40.6875 545.9 44.3438C547.818 48 548.777 52.1165 548.777 56.6932C548.777 61.2699 547.831 65.3991 545.939 69.081C544.047 72.7372 541.234 75.6392 537.501 77.7869C533.768 79.9091 529.128 80.9702 523.579 80.9702H503.636V74.527H523.388C527.504 74.527 530.917 73.7599 533.628 72.2259C536.338 70.6662 538.358 68.544 539.687 65.8594C541.042 63.1747 541.72 60.1193 541.72 56.6932C541.72 53.267 541.042 50.2116 539.687 47.527C538.358 44.8423 536.325 42.733 533.589 41.1989C530.879 39.6648 527.44 38.8977 523.272 38.8977H505.285V111H498.113ZM576.327 112.342C572.774 112.342 569.526 111.652 566.586 110.271C563.646 108.865 561.306 106.845 559.568 104.212C557.829 101.553 556.96 98.331 556.96 94.5469C556.96 91.6321 557.509 89.1776 558.609 87.1832C559.708 85.1889 561.268 83.5526 563.288 82.2741C565.308 80.9957 567.698 79.9858 570.46 79.2443C573.221 78.5028 576.264 77.9276 579.587 77.5185C582.886 77.1094 585.673 76.7514 587.948 76.4446C590.249 76.1378 592.001 75.652 593.202 74.9872C594.404 74.3224 595.005 73.2486 595.005 71.7656V70.3849C595.005 66.3707 593.803 63.2131 591.4 60.9119C589.022 58.5852 585.596 57.4219 581.122 57.4219C576.877 57.4219 573.413 58.3551 570.728 60.2216C568.069 62.0881 566.202 64.2869 565.129 66.8182L558.647 64.4787C559.977 61.2571 561.818 58.6875 564.17 56.7699C566.522 54.8267 569.156 53.4332 572.07 52.5895C574.985 51.7202 577.938 51.2855 580.93 51.2855C583.18 51.2855 585.519 51.5795 587.948 52.1676C590.403 52.7557 592.678 53.7784 594.775 55.2358C596.872 56.6676 598.572 58.6747 599.876 61.2571C601.18 63.8139 601.832 67.0611 601.832 70.9986V111H595.005V101.68H594.583C593.765 103.419 592.55 105.107 590.94 106.743C589.329 108.379 587.309 109.722 584.88 110.77C582.451 111.818 579.6 112.342 576.327 112.342ZM577.248 106.091C580.879 106.091 584.024 105.286 586.683 103.675C589.342 102.064 591.387 99.929 592.819 97.2699C594.276 94.5852 595.005 91.6321 595.005 88.4105V79.8963C594.494 80.3821 593.637 80.8168 592.435 81.2003C591.259 81.5838 589.891 81.929 588.332 82.2358C586.798 82.517 585.264 82.7599 583.729 82.9645C582.195 83.169 580.815 83.348 579.587 83.5014C576.264 83.9105 573.425 84.5497 571.073 85.419C568.721 86.2884 566.918 87.4901 565.666 89.0241C564.413 90.5327 563.786 92.4759 563.786 94.8537C563.786 98.4332 565.065 101.207 567.622 103.176C570.178 105.119 573.387 106.091 577.248 106.091ZM638.875 52.0909V58.0355H610.762V52.0909H638.875ZM619.545 37.9773H626.41V95.6207C626.41 98.0753 626.832 100.006 627.676 101.412C628.52 102.793 629.619 103.777 630.974 104.365C632.329 104.928 633.774 105.209 635.308 105.209C636.203 105.209 636.97 105.158 637.609 105.055C638.248 104.928 638.811 104.8 639.297 104.672L640.754 110.847C640.089 111.102 639.271 111.332 638.299 111.537C637.328 111.767 636.126 111.882 634.694 111.882C632.189 111.882 629.772 111.332 627.446 110.233C625.145 109.134 623.253 107.497 621.77 105.324C620.287 103.151 619.545 100.453 619.545 97.2315V37.9773ZM673.262 52.0909V58.0355H645.149V52.0909H673.262ZM653.932 37.9773H660.797V95.6207C660.797 98.0753 661.219 100.006 662.063 101.412C662.907 102.793 664.006 103.777 665.361 104.365C666.716 104.928 668.161 105.209 669.695 105.209C670.59 105.209 671.357 105.158 671.996 105.055C672.635 104.928 673.198 104.8 673.684 104.672L675.141 110.847C674.476 111.102 673.658 111.332 672.686 111.537C671.715 111.767 670.513 111.882 669.081 111.882C666.576 111.882 664.159 111.332 661.833 110.233C659.532 109.134 657.64 107.497 656.157 105.324C654.674 103.151 653.932 100.453 653.932 97.2315V37.9773ZM707.63 112.227C702.132 112.227 697.377 110.949 693.362 108.392C689.348 105.81 686.242 102.243 684.043 97.6918C681.87 93.1151 680.783 87.848 680.783 81.8906C680.783 75.9588 681.87 70.6918 684.043 66.0895C686.242 61.4616 689.272 57.8437 693.132 55.2358C697.019 52.6023 701.506 51.2855 706.594 51.2855C709.79 51.2855 712.871 51.8736 715.837 53.0497C718.803 54.2003 721.462 55.9773 723.814 58.3807C726.192 60.7585 728.071 63.7628 729.452 67.3935C730.833 70.9986 731.523 75.2685 731.523 80.2031V83.5781H685.5V77.5568H724.543C724.543 73.7727 723.776 70.3722 722.242 67.3551C720.733 64.3125 718.624 61.9091 715.914 60.1449C713.229 58.3807 710.122 57.4986 706.594 57.4986C702.861 57.4986 699.576 58.4957 696.737 60.4901C693.899 62.4844 691.675 65.1179 690.064 68.3906C688.479 71.6634 687.674 75.2429 687.648 79.1293V82.7344C687.648 87.4134 688.453 91.5043 690.064 95.0071C691.701 98.4844 694.014 101.182 697.006 103.099C699.997 105.017 703.539 105.976 707.63 105.976C710.416 105.976 712.858 105.541 714.955 104.672C717.077 103.803 718.854 102.639 720.286 101.182C721.743 99.6989 722.843 98.0753 723.584 96.3111L730.066 98.4205C729.171 100.901 727.701 103.189 725.655 105.286C723.635 107.382 721.104 109.07 718.061 110.348C715.044 111.601 711.567 112.227 707.63 112.227ZM742.247 111V52.0909H748.882V61.142H749.38C750.556 58.1761 752.602 55.7855 755.517 53.9702C758.457 52.1293 761.781 51.2088 765.488 51.2088C766.051 51.2088 766.677 51.2216 767.367 51.2472C768.058 51.2727 768.633 51.2983 769.093 51.3239V58.2656C768.786 58.2145 768.25 58.1378 767.482 58.0355C766.715 57.9332 765.884 57.8821 764.99 57.8821C761.921 57.8821 759.186 58.5341 756.782 59.8381C754.404 61.1165 752.525 62.8935 751.144 65.169C749.764 67.4446 749.073 70.0398 749.073 72.9545V111H742.247ZM783.249 74.1818V111H776.423V52.0909H783.058V61.3338H783.671C785.052 58.3168 787.2 55.9006 790.115 54.0852C793.055 52.2443 796.686 51.3239 801.007 51.3239C804.97 51.3239 808.447 52.1548 811.438 53.8168C814.455 55.4531 816.795 57.8693 818.457 61.0653C820.144 64.2614 820.988 68.1861 820.988 72.8395V111H814.161V73.2614C814.161 68.429 812.806 64.6065 810.096 61.794C807.411 58.9815 803.806 57.5753 799.281 57.5753C796.187 57.5753 793.438 58.2401 791.035 59.5696C788.632 60.8991 786.727 62.8168 785.32 65.3224C783.94 67.8026 783.249 70.7557 783.249 74.1818ZM874.225 65.0156L867.974 66.7798C867.36 65.0156 866.491 63.4176 865.366 61.9858C864.241 60.554 862.771 59.4162 860.955 58.5724C859.166 57.7287 856.941 57.3068 854.282 57.3068C850.294 57.3068 847.021 58.2528 844.464 60.1449C841.907 62.0369 840.629 64.4787 840.629 67.4702C840.629 70.0014 841.498 72.0597 843.237 73.6449C845.001 75.2045 847.711 76.4446 851.367 77.3651L860.265 79.5511C865.2 80.7528 868.894 82.6577 871.349 85.2656C873.829 87.8736 875.069 91.1463 875.069 95.0838C875.069 98.4077 874.149 101.361 872.308 103.943C870.467 106.526 867.897 108.558 864.599 110.041C861.326 111.499 857.529 112.227 853.208 112.227C847.455 112.227 842.713 110.936 838.98 108.354C835.247 105.746 832.856 101.987 831.808 97.0781L838.366 95.4673C839.21 98.9702 840.859 101.616 843.313 103.406C845.794 105.196 849.053 106.091 853.093 106.091C857.619 106.091 861.237 105.081 863.947 103.061C866.657 101.016 868.012 98.4588 868.012 95.3906C868.012 93.0128 867.22 91.0185 865.634 89.4077C864.049 87.7713 861.646 86.5696 858.424 85.8026L848.798 83.5014C843.684 82.2741 839.9 80.331 837.445 77.6719C834.991 75.0128 833.764 71.7145 833.764 67.777C833.764 64.5298 834.646 61.679 836.41 59.2244C838.174 56.7443 840.603 54.8011 843.697 53.3949C846.791 51.9886 850.319 51.2855 854.282 51.2855C859.677 51.2855 863.985 52.5128 867.207 54.9673C870.454 57.3963 872.794 60.7457 874.225 65.0156Z" fill="#454545"/>
</g>
<defs>
<clipPath id="clip0_1_47">
<rect width="881" height="136" fill="white"/>
</clipPath>
</defs>
</svg>
