<?xml version="1.0" encoding="utf-8"?><!-- Uploaded to: SVG Repo, www.svgrepo.com, Generator: SVG Repo Mixer Tools -->
<svg fill="#000000" width="800px" height="800px" viewBox="0 0 1920 1920" xmlns="http://www.w3.org/2000/svg">
    <path d="M686.211 137.143v-.137l68.572.137H686.21Zm0 1508.571c75.566 0 137.143 61.577 137.143 137.143S761.777 1920 686.211 1920c-75.702 0-137.142-61.577-137.142-137.143s61.44-137.143 137.142-137.143Zm548.572 0c75.566 0 137.143 61.577 137.143 137.143S1310.349 1920 1234.783 1920c-75.703 0-137.143-61.577-137.143-137.143s61.44-137.143 137.143-137.143ZM686.21 1097.143c75.566 0 137.143 61.577 137.143 137.143 0 75.565-61.577 137.143-137.143 137.143-75.702 0-137.142-61.578-137.142-137.143 0-75.566 61.44-137.143 137.142-137.143Zm548.572 0c75.566 0 137.143 61.577 137.143 137.143 0 75.565-61.577 137.143-137.143 137.143-75.703 0-137.143-61.578-137.143-137.143 0-75.566 61.44-137.143 137.143-137.143ZM686.21 548.57c75.566 0 137.143 61.578 137.143 137.143 0 75.566-61.577 137.143-137.143 137.143-75.702 0-137.142-61.577-137.142-137.143 0-75.565 61.44-137.143 137.142-137.143Zm548.572 0c75.566 0 137.143 61.578 137.143 137.143 0 75.566-61.577 137.143-137.143 137.143-75.703 0-137.143-61.577-137.143-137.143 0-75.565 61.44-137.143 137.143-137.143ZM686.21 0c75.566 0 137.143 61.577 137.143 137.143S761.776 274.286 686.21 274.286c-75.702 0-137.142-61.577-137.142-137.143S610.509 0 686.21 0Zm548.503 0c75.566 0 137.143 61.577 137.143 137.143s-61.577 137.143-137.143 137.143c-75.565 0-137.143-61.577-137.143-137.143S1159.15 0 1234.714 0Z" fill-rule="evenodd"/>
</svg>