<svg width="128" height="128" viewBox="0 0 128 128" fill="none" xmlns="http://www.w3.org/2000/svg">
<g clip-path="url(#clip0_120_27)">
<path d="M98 0H30C13.4315 0 0 13.4315 0 30V98C0 114.569 13.4315 128 30 128H98C114.569 128 128 114.569 128 98V30C128 13.4315 114.569 0 98 0Z" fill="url(#paint0_linear_120_27)"/>
<path d="M64 109C88.8528 109 109 88.8528 109 64C109 39.1472 88.8528 19 64 19C39.1472 19 19 39.1472 19 64C19 88.8528 39.1472 109 64 109Z" fill="url(#paint1_linear_120_27)"/>
<path d="M56.2769 37.4821L37.4821 56.2768C35.7247 58.0341 35.7247 60.8837 37.4821 62.641C39.2394 64.3984 42.0887 64.3984 43.846 62.641L62.6412 43.8461C64.3985 42.0887 64.3985 39.2394 62.6412 37.4821C60.8838 35.7247 58.0342 35.7247 56.2769 37.4821Z" fill="#0ACF83"/>
<path d="M83.727 64.9323L64.9318 83.7269C63.1744 85.4843 63.1744 88.3339 64.9318 90.0912C66.6896 91.8485 69.5387 91.8485 71.296 90.0912L90.0907 71.296C91.848 69.5387 91.848 66.6896 90.0907 64.9323C88.3334 63.1749 85.4843 63.1749 83.727 64.9323Z" fill="#FF7262"/>
<path d="M80.0123 40.632L40.632 80.0124C38.8746 81.7697 38.8746 84.6188 40.632 86.3761C42.3893 88.1335 45.2386 88.1335 46.996 86.3761L86.376 46.9959C88.1334 45.2386 88.1334 42.3893 86.376 40.632C84.6187 38.8747 81.7696 38.8746 80.0123 40.632Z" fill="#A259FF"/>
</g>
<defs>
<linearGradient id="paint0_linear_120_27" x1="133.867" y1="144.8" x2="-1.18037e-06" y2="-5.86667" gradientUnits="userSpaceOnUse">
<stop offset="0.0743756" stop-color="#0C81B1"/>
<stop offset="0.572495" stop-color="#1ABCFE"/>
<stop offset="1" stop-color="white"/>
</linearGradient>
<linearGradient id="paint1_linear_120_27" x1="28.5333" y1="30.9333" x2="102.133" y2="98.1333" gradientUnits="userSpaceOnUse">
<stop stop-color="white"/>
<stop offset="0.459191" stop-color="white"/>
<stop offset="1" stop-color="#CCCCCC"/>
</linearGradient>
<clipPath id="clip0_120_27">
<rect width="128" height="128" fill="white"/>
</clipPath>
</defs>
</svg>
